<svg height="682pt" viewBox="-21 -115 682.66669 682" width="682pt" xmlns="http://www.w3.org/2000/svg"><path d="m87.769531 242.597656h-18.75v-18.75h18.75zm0-31.25h-18.75v-18.75h18.75zm0 0"/><path d="m373.125-5.917969v18.75h248.125v43.75h-273.125v-62.5h-56.25v62.5h-273.125v-43.75h248.125v-18.75h-266.875v452.480469h266.875v-18.75h-248.125v-43.75h273.125v62.5h56.25v-62.5h273.125v43.75h-248.125v18.75h266.875v-452.480469zm110.617188 81.25v135.617188h-135.617188v-135.617188zm-191.867188 0v135.617188h-135.617188v-135.617188zm-273.125 289.980469v-289.980469h118.757812v289.980469zm137.507812 0v-135.613281h135.617188v135.613281zm173.117188 62.5h-18.75v-414.980469h18.75zm18.75-62.5v-135.613281h135.617188v135.613281zm273.125 0h-118.757812v-289.980469h118.757812zm0 0"/></svg>